<svg xmlns="http://www.w3.org/2000/svg" xmlns:xlink="http://www.w3.org/1999/xlink" viewBox="0 0 235.51 49.29"><defs><style>.cls-1{fill:white;}.cls-2{fill:url(#linear-gradient);}</style><linearGradient id="linear-gradient" x1="24.64" y1="49.29" x2="24.64" gradientUnits="userSpaceOnUse"><stop offset="0" stop-color="#0048ff"/><stop offset="1" stop-color="aqua"/></linearGradient></defs><title>Artboard 1 copy 4</title><g id="Logo"><path class="cls-1" d="M72.23,19.65a9.23,9.23,0,0,0-9.51,9.58,9.51,9.51,0,1,0,19,0A9.23,9.23,0,0,0,72.23,19.65Zm6.51,9.58a6.51,6.51,0,1,1-13,0,6.51,6.51,0,1,1,13,0Z"/><path class="cls-1" d="M106.46,19.76a7.38,7.38,0,0,0-6.39,3.4,6.7,6.7,0,0,0-6.24-3.4A7,7,0,0,0,88.55,22l0-2H85.7V38.46h3V28.17c0-3.21,2.13-5.55,5.05-5.55,3.77,0,4.56,2.88,4.56,5.3V38.46h3V28.17c0-3.21,2.14-5.55,5.09-5.55,3.77,0,4.56,2.88,4.56,5.3V38.46h3V27.78C114,22.83,111.1,19.76,106.46,19.76Z"/><path class="cls-1" d="M127,19.68c-5.48,0-9.3,3.93-9.3,9.55s3.88,9.62,9.44,9.62a10.18,10.18,0,0,0,7.91-3.47l.31-.38-2.14-1.86-.32.42A7.5,7.5,0,0,1,127.17,36a6.05,6.05,0,0,1-6.37-5.44h15.46l0-.46a9.62,9.62,0,0,0-2.24-7.57A9.26,9.26,0,0,0,127,19.68Zm-6.19,8.07A5.92,5.92,0,0,1,127,22.51c3.61,0,6,2,6.3,5.24Z"/><path class="cls-1" d="M155.88,18.29,153.58,21a10.71,10.71,0,0,0-5.16-1.26c-5.44,0-9.54,3.89-9.54,9,0,5.47,3.76,9,9.58,9,3.84,0,6.32,1.63,6.32,4.14s-2.49,4.17-6.36,4.17a6.92,6.92,0,0,1-5-1.77,4,4,0,0,1-1.2-3v-.5h-3v.48a6.75,6.75,0,0,0,2,5A10,10,0,0,0,148.42,49c5.61,0,9.37-2.82,9.37-7,0-2.61-1.51-4.65-4.25-5.77A8.11,8.11,0,0,0,158,28.81a8.54,8.54,0,0,0-2.25-5.94L158.11,20ZM155,28.81A6.22,6.22,0,0,1,148.42,35c-4,0-6.54-2.36-6.54-6.15s2.69-6.19,6.54-6.19S155,25.05,155,28.81Z"/><path class="cls-1" d="M176.85,22.48a9,9,0,0,0-6.75-2.8c-5.44,0-9.23,3.93-9.23,9.55s3.79,9.55,9.23,9.55A9.06,9.06,0,0,0,176.85,36v2.45h2.86V20h-2.86Zm-.14,6.75c0,4-2.59,6.68-6.44,6.68s-6.39-2.68-6.39-6.68,2.57-6.68,6.39-6.68S176.71,25.24,176.71,29.23Z"/><path class="cls-1" d="M205.63,19.76a7.38,7.38,0,0,0-6.39,3.4,6.7,6.7,0,0,0-6.24-3.4A7,7,0,0,0,187.72,22l0-2h-2.83V38.46h3V28.17c0-3.21,2.13-5.55,5.05-5.55,3.77,0,4.56,2.88,4.56,5.3V38.46h3V28.17c0-3.21,2.14-5.55,5.09-5.55,3.77,0,4.56,2.88,4.56,5.3V38.46h3V27.78C213.16,22.83,210.27,19.76,205.63,19.76Z"/><path class="cls-1" d="M233.22,22.48a9.26,9.26,0,0,0-7.05-2.8c-5.48,0-9.3,3.93-9.3,9.55s3.88,9.62,9.44,9.62a10.18,10.18,0,0,0,7.91-3.47l.31-.38-2.14-1.86-.32.42A7.5,7.5,0,0,1,226.34,36,6.05,6.05,0,0,1,220,30.51h15.45l0-.46A9.66,9.66,0,0,0,233.22,22.48Zm-.72,5.27H220a5.92,5.92,0,0,1,6.22-5.24C229.81,22.51,232.22,24.52,232.5,27.75Z"/><g id="logo_3_" data-name="logo (3)"><path id="symbol" class="cls-2" d="M49.29,24.64a24.65,24.65,0,1,0-42,17.45H1.06v7.2H22.43V42a17.39,17.39,0,0,1-9.67-4.54,39.78,39.78,0,0,0,22.86-7.21,66.48,66.48,0,0,1-9.49,2.6,56,56,0,0,1-16.34,1c-5-.56-8.36-2.13-8.8-4.52s2.07-5.05,6.42-7.45A17.46,17.46,0,0,1,39.5,15.48c3.4.38,6,1.22,7.51,2.47a3.51,3.51,0,0,1,1.29,2c.43,2.35-2.07,5-6.41,7.44A17.5,17.5,0,0,1,26.86,42v7.32H48.22v-7.2H42.05A24.57,24.57,0,0,0,49.29,24.64Z"/></g></g></svg>